<?xml version="1.0" encoding="UTF-8" standalone="no"?>
<!-- Created with Inkscape (http://www.inkscape.org/) -->

<svg
   width="151.03101mm"
   height="20.249001mm"
   viewBox="0 0 151.03101 20.249001"
   version="1.1"
   id="svg22196"
   inkscape:version="1.2.2 (732a01da63, 2022-12-09)"
   sodipodi:docname="logo.svg"
   inkscape:export-filename="logo.svg"
   inkscape:export-xdpi="96"
   inkscape:export-ydpi="96"
   xmlns:inkscape="http://www.inkscape.org/namespaces/inkscape"
   xmlns:sodipodi="http://sodipodi.sourceforge.net/DTD/sodipodi-0.dtd"
   xmlns="http://www.w3.org/2000/svg"
   xmlns:svg="http://www.w3.org/2000/svg">
  <sodipodi:namedview
     id="namedview22198"
     pagecolor="#b2b2b2"
     bordercolor="#ffffff"
     borderopacity="1"
     inkscape:showpageshadow="0"
     inkscape:pageopacity="0"
     inkscape:pagecheckerboard="true"
     inkscape:deskcolor="#999999"
     inkscape:document-units="mm"
     showgrid="false"
     inkscape:zoom="1.0444209"
     inkscape:cx="256.60152"
     inkscape:cy="154.15241"
     inkscape:window-width="1920"
     inkscape:window-height="1009"
     inkscape:window-x="-8"
     inkscape:window-y="-8"
     inkscape:window-maximized="1"
     inkscape:current-layer="layer1" />
  <defs
     id="defs22193">
    <inkscape:path-effect
       effect="powerstroke"
       id="path-effect22283"
       is_visible="true"
       lpeversion="1"
       offset_points="1.8984642,5.3739447"
       not_jump="true"
       sort_points="true"
       interpolator_type="CentripetalCatmullRom"
       interpolator_beta="0.75"
       start_linecap_type="round"
       linejoin_type="spiro"
       miter_limit="4"
       scale_width="1"
       end_linecap_type="round" />
    <inkscape:path-effect
       effect="simplify"
       id="path-effect22281"
       is_visible="true"
       lpeversion="1"
       steps="1"
       threshold="0.0047745358"
       smooth_angles="0"
       helper_size="0"
       simplify_individual_paths="false"
       simplify_just_coalesce="false"
       step="1" />
    <inkscape:path-effect
       effect="powerstroke"
       id="path-effect22276"
       is_visible="true"
       lpeversion="1"
       offset_points="1.302983,5.3739447"
       not_jump="true"
       sort_points="true"
       interpolator_type="CentripetalCatmullRom"
       interpolator_beta="0.75"
       start_linecap_type="round"
       linejoin_type="spiro"
       miter_limit="4"
       scale_width="1"
       end_linecap_type="round" />
    <inkscape:path-effect
       effect="simplify"
       id="path-effect22274"
       is_visible="true"
       lpeversion="1"
       steps="1"
       threshold="0.0047745358"
       smooth_angles="0"
       helper_size="0"
       simplify_individual_paths="false"
       simplify_just_coalesce="false"
       step="1" />
    <inkscape:path-effect
       effect="spiro"
       id="path-effect22267"
       is_visible="true"
       lpeversion="1" />
  </defs>
  <g
     inkscape:label="Layer 1"
     inkscape:groupmode="layer"
     id="layer1">
    <path
       style="fill:#18122b;fill-opacity:0.562738;stroke-width:0.264583"
       d="M 3.5773823,101.75801 8.0732311,98.660184"
       id="path22265"
       inkscape:path-effect="#path-effect22267"
       inkscape:original-d="m 3.5773823,101.75801 c 2.5910939,-2.171623 1.118122,-1.10275 4.4958488,-3.097826" />
    <g
       aria-label="&lt;devline.io/&gt;"
       id="text22364"
       style="font-weight:900;font-size:24.6944px;font-family:Mulish;-inkscape-font-specification:'Mulish Heavy';fill:#393053;stroke-width:0.264583">
      <path
         d="M 12.100256,17.977523 -4.2915344e-8,13.236198 V 9.9518429 L 12.100256,5.2352123 V 8.4701788 L 1.0865536,12.692921 v -2.148413 l 11.0137024,4.198049 z"
         id="path27408" />
      <path
         d="m 19.804918,18.965299 q -1.605136,0 -2.86455,-0.765526 -1.259415,-0.790221 -1.975552,-2.271885 -0.716138,-1.481664 -0.716138,-3.506605 0,-2.049635 0.691443,-3.506605 0.716138,-1.481664 1.975552,-2.2471904 1.284109,-0.7902209 2.889245,-0.7902209 1.432276,0 2.592912,0.6667488 1.160637,0.6420545 1.555748,1.7286081 H 23.583162 V 0.51858176 h 4.395603 V 18.693661 h -4.32152 V 16.44647 h 0.321027 q -0.345722,1.135943 -1.531053,1.827386 -1.160637,0.691443 -2.642301,0.691443 z m 1.407581,-3.259661 q 1.086554,0 1.777997,-0.765526 0.716138,-0.790221 0.716138,-2.518829 0,-1.728608 -0.716138,-2.4941345 -0.691443,-0.7902209 -1.777997,-0.7902209 -1.111248,0 -1.827385,0.7902209 -0.691444,0.7655265 -0.691444,2.4941345 0,1.728608 0.691444,2.518829 0.716137,0.765526 1.827385,0.765526 z"
         id="path27410" />
      <path
         d="m 37.337921,18.965299 q -3.407827,0 -5.309296,-1.753302 -1.876774,-1.753303 -1.876774,-4.815408 0,-1.901469 0.79022,-3.3831334 0.790221,-1.481664 2.222497,-2.2965792 1.432275,-0.8396097 3.358438,-0.8396097 1.901469,0 3.160883,0.8396097 1.284109,0.8149152 1.926164,2.2718848 0.642054,1.4322748 0.642054,3.3337438 v 0.938388 h -8.420791 v -2.07433 h 5.185825 l -0.419805,0.345722 q 0,-1.407581 -0.543277,-2.0743302 -0.518582,-0.6914432 -1.481664,-0.6914432 -1.111248,0 -1.703914,0.8396096 -0.567971,0.8149148 -0.567971,2.4694398 v 0.4445 q 0,1.654524 0.814915,2.420051 0.814915,0.765526 2.345968,0.765526 0.987776,0 1.85208,-0.222249 0.888999,-0.22225 1.67922,-0.716138 l 1.135942,2.864551 q -0.938387,0.642054 -2.173107,0.987776 -1.23472,0.345721 -2.617607,0.345721 z"
         id="path27412" />
      <path
         d="M 47.783632,18.693661 42.326169,6.1489051 h 4.617853 l 3.234967,8.3467079 H 49.28999 l 3.383133,-8.3467079 h 4.32152 L 51.487792,18.693661 Z"
         id="path27414" />
      <path
         d="M 57.933033,18.693661 V 0.51858176 h 4.395603 V 18.693661 Z"
         id="path27416" />
      <path
         d="M 65.045021,18.693661 V 6.1489051 h 4.395603 V 18.693661 Z M 64.946243,4.3709083 V 0.41980415 h 4.617853 V 4.3709083 Z"
         id="path27418" />
      <path
         d="M 72.157013,18.693661 V 9.5567324 q 0,-0.8396096 -0.04939,-1.7039136 -0.04939,-0.864304 -0.148166,-1.7039137 h 4.247437 l 0.246944,2.1731073 H 76.1822 q 0.61736,-1.1853312 1.753303,-1.8026913 1.135942,-0.6420544 2.568217,-0.6420544 2.197802,0 3.284356,1.3088033 1.111248,1.2841088 1.111248,4.025187 v 7.482404 H 80.50372 v -7.284848 q 0,-1.210026 -0.419804,-1.6792197 -0.419805,-0.4938881 -1.210026,-0.4938881 -1.037165,0 -1.679219,0.6914433 -0.642055,0.6667485 -0.642055,1.7779965 v 6.988516 z"
         id="path27420" />
      <path
         d="m 94.159702,18.965299 q -3.407827,0 -5.309296,-1.753302 -1.876774,-1.753303 -1.876774,-4.815408 0,-1.901469 0.790221,-3.3831334 0.79022,-1.481664 2.222496,-2.2965792 1.432275,-0.8396097 3.358438,-0.8396097 1.901469,0 3.160884,0.8396097 1.284108,0.8149152 1.926163,2.2718848 0.642054,1.4322748 0.642054,3.3337438 v 0.938388 h -8.42079 v -2.07433 h 5.185824 l -0.419805,0.345722 q 0,-1.407581 -0.543277,-2.0743302 -0.518582,-0.6914432 -1.481664,-0.6914432 -1.111248,0 -1.703914,0.8396096 -0.567971,0.8149148 -0.567971,2.4694398 v 0.4445 q 0,1.654524 0.814915,2.420051 0.814916,0.765526 2.345968,0.765526 0.987776,0 1.852081,-0.222249 0.888998,-0.22225 1.679219,-0.716138 l 1.135942,2.864551 q -0.938387,0.642054 -2.173107,0.987776 -1.23472,0.345721 -2.617607,0.345721 z"
         id="path27422" />
      <path
         d="M 100.87658,18.693661 V 14.19928 h 4.56846 v 4.494381 z"
         id="path27424" />
      <path
         d="M 107.88978,18.693661 V 6.1489051 h 4.3956 V 18.693661 Z M 107.791,4.3709083 V 0.41980415 h 4.61785 V 4.3709083 Z"
         id="path27426" />
      <path
         d="m 121.27415,18.965299 q -2.09903,0 -3.63008,-0.790221 -1.53105,-0.790221 -2.37066,-2.24719 -0.83961,-1.481664 -0.83961,-3.506605 0,-2.049635 0.83961,-3.506605 0.83961,-1.4569696 2.37066,-2.2471904 1.53105,-0.7902209 3.63008,-0.7902209 2.07433,0 3.60538,0.7902209 1.53105,0.7902208 2.37066,2.2718848 0.83961,1.4569696 0.83961,3.4819106 0,2.000246 -0.83961,3.48191 -0.83961,1.481664 -2.37066,2.271885 -1.53105,0.790221 -3.60538,0.790221 z m 0,-3.259661 q 1.08655,0 1.72861,-0.765526 0.64205,-0.790221 0.64205,-2.518829 0,-1.728608 -0.64205,-2.4941345 -0.64206,-0.7902209 -1.72861,-0.7902209 -1.11125,0 -1.7533,0.7902209 -0.64206,0.7655265 -0.64206,2.4941345 0,1.728608 0.64206,2.518829 0.64205,0.765526 1.7533,0.765526 z"
         id="path27428" />
      <path
         d="m 131.69519,20.249408 h -3.50661 L 134.7326,-6.5994263e-7 h 3.50661 z"
         id="path27430" />
      <path
         d="m 138.95533,17.977523 v -3.234966 l 10.98901,-4.198049 v 2.148413 L 138.95533,8.4701788 V 5.2352123 l 12.07556,4.7166306 v 3.2843551 z"
         id="path27432" />
    </g>
    <text
       xml:space="preserve"
       style="font-weight:900;font-size:24.6944px;font-family:Mulish;-inkscape-font-specification:'Mulish Heavy';fill:#18122b;fill-opacity:0.562738;stroke-width:0.264583"
       x="66.879166"
       y="113.49191"
       id="text22400"><tspan
         sodipodi:role="line"
         id="tspan22398"
         style="stroke-width:0.264583"
         x="66.879166"
         y="113.49191" /></text>
  </g>
</svg>
