<svg width="217.851" height="37.501" viewBox="0 0 217.851 37.501" xmlns="http://www.w3.org/2000/svg"><g id="svgGroup" stroke-linecap="round" fill-rule="evenodd" font-size="9pt" stroke="#18122b" stroke-width="0.25mm" fill="#18122b" style="stroke:#18122b;stroke-width:0.25mm;fill:#18122b"><path d="M 56.25 24.7 L 36.5 24.7 L 35.6 21.25 L 54.85 21.25 L 54.05 21.95 L 54.05 20.85 A 7.022 7.022 0 0 0 53.517 18.726 A 6.189 6.189 0 0 0 52.675 17.325 Q 51.5 15.85 49.825 15.05 Q 48.15 14.25 46.3 14.25 Q 44.8 14.25 43.325 14.775 A 7.039 7.039 0 0 0 40.786 16.366 A 8.137 8.137 0 0 0 40.675 16.475 A 7.798 7.798 0 0 0 39.439 18.108 A 10.346 10.346 0 0 0 38.775 19.5 A 9.848 9.848 0 0 0 38.255 21.399 Q 38.095 22.313 38.06 23.356 A 17.733 17.733 0 0 0 38.05 23.95 A 12.129 12.129 0 0 0 38.34 26.655 A 9.588 9.588 0 0 0 39.225 29.05 Q 40.4 31.25 42.5 32.525 A 8.756 8.756 0 0 0 45.962 33.71 A 11.188 11.188 0 0 0 47.4 33.8 Q 49.15 33.8 50.45 33.35 A 10.004 10.004 0 0 0 51.733 32.808 A 7.786 7.786 0 0 0 52.7 32.225 Q 53.65 31.55 54.3 30.85 A 3.001 3.001 0 0 1 54.761 30.585 Q 55.166 30.4 55.55 30.4 A 1.834 1.834 0 0 1 56.144 30.492 A 1.548 1.548 0 0 1 56.775 30.9 Q 57.25 31.4 57.25 32.1 A 1.731 1.731 0 0 1 56.837 33.219 A 2.653 2.653 0 0 1 56.45 33.6 Q 55.05 35.15 52.65 36.325 Q 50.25 37.5 47.55 37.5 Q 45.55 37.5 43.8 37.075 A 12.574 12.574 0 0 1 40.55 35.8 Q 37.55 34.1 35.875 31.125 A 12.988 12.988 0 0 1 34.333 26.371 A 16.513 16.513 0 0 1 34.2 24.25 A 18.358 18.358 0 0 1 34.507 20.807 Q 34.928 18.603 35.925 16.825 Q 37.65 13.75 40.425 12.125 Q 43.2 10.5 46.3 10.5 Q 48.6 10.5 50.75 11.35 Q 52.9 12.2 54.55 13.825 Q 56.2 15.45 57.2 17.725 A 12.412 12.412 0 0 1 58.147 21.267 A 15.195 15.195 0 0 1 58.25 22.8 A 1.751 1.751 0 0 1 57.71 24.094 A 2.191 2.191 0 0 1 57.65 24.15 Q 57.05 24.7 56.25 24.7 Z M 164.05 24.7 L 144.3 24.7 L 143.4 21.25 L 162.65 21.25 L 161.85 21.95 L 161.85 20.85 A 7.022 7.022 0 0 0 161.317 18.726 A 6.189 6.189 0 0 0 160.475 17.325 Q 159.3 15.85 157.625 15.05 Q 155.95 14.25 154.1 14.25 Q 152.6 14.25 151.125 14.775 A 7.039 7.039 0 0 0 148.586 16.366 A 8.137 8.137 0 0 0 148.475 16.475 A 7.798 7.798 0 0 0 147.239 18.108 A 10.346 10.346 0 0 0 146.575 19.5 A 9.848 9.848 0 0 0 146.055 21.399 Q 145.895 22.313 145.86 23.356 A 17.733 17.733 0 0 0 145.85 23.95 A 12.129 12.129 0 0 0 146.14 26.655 A 9.588 9.588 0 0 0 147.025 29.05 Q 148.2 31.25 150.3 32.525 A 8.756 8.756 0 0 0 153.762 33.71 A 11.188 11.188 0 0 0 155.2 33.8 Q 156.95 33.8 158.25 33.35 A 10.004 10.004 0 0 0 159.533 32.808 A 7.786 7.786 0 0 0 160.5 32.225 Q 161.45 31.55 162.1 30.85 A 3.001 3.001 0 0 1 162.561 30.585 Q 162.966 30.4 163.35 30.4 A 1.834 1.834 0 0 1 163.944 30.492 A 1.548 1.548 0 0 1 164.575 30.9 Q 165.05 31.4 165.05 32.1 A 1.731 1.731 0 0 1 164.637 33.219 A 2.653 2.653 0 0 1 164.25 33.6 Q 162.85 35.15 160.45 36.325 Q 158.05 37.5 155.35 37.5 Q 153.35 37.5 151.6 37.075 A 12.574 12.574 0 0 1 148.35 35.8 Q 145.35 34.1 143.675 31.125 A 12.988 12.988 0 0 1 142.133 26.371 A 16.513 16.513 0 0 1 142 24.25 A 18.358 18.358 0 0 1 142.307 20.807 Q 142.728 18.603 143.725 16.825 Q 145.45 13.75 148.225 12.125 Q 151 10.5 154.1 10.5 Q 156.4 10.5 158.55 11.35 Q 160.7 12.2 162.35 13.825 Q 164 15.45 165 17.725 A 12.412 12.412 0 0 1 165.947 21.267 A 15.195 15.195 0 0 1 166.05 22.8 A 1.751 1.751 0 0 1 165.51 24.094 A 2.191 2.191 0 0 1 165.45 24.15 Q 164.85 24.7 164.05 24.7 Z M 136 20.9 L 136 34.95 Q 136 35.8 135.425 36.4 A 1.888 1.888 0 0 1 134.053 37 A 2.372 2.372 0 0 1 134 37 A 1.978 1.978 0 0 1 133.175 36.831 A 1.931 1.931 0 0 1 132.575 36.4 Q 132 35.8 132 34.95 L 132 21 A 10.814 10.814 0 0 0 131.838 19.087 A 8.571 8.571 0 0 0 131.425 17.575 Q 130.85 16.05 129.525 15.125 A 4.669 4.669 0 0 0 128.131 14.479 Q 127.526 14.305 126.806 14.239 A 10.034 10.034 0 0 0 125.9 14.2 A 8.277 8.277 0 0 0 122.89 14.742 A 7.859 7.859 0 0 0 122.05 15.125 A 7.924 7.924 0 0 0 119.896 16.765 A 7.377 7.377 0 0 0 119.25 17.575 Q 118.2 19.1 118.2 21 L 118.2 34.95 Q 118.2 35.8 117.625 36.4 A 1.888 1.888 0 0 1 116.253 37 A 2.372 2.372 0 0 1 116.2 37 A 1.978 1.978 0 0 1 115.375 36.831 A 1.931 1.931 0 0 1 114.775 36.4 Q 114.2 35.8 114.2 34.95 L 114.2 13.15 A 2.069 2.069 0 0 1 114.344 12.369 A 1.923 1.923 0 0 1 114.775 11.725 A 1.931 1.931 0 0 1 116.174 11.15 A 2.494 2.494 0 0 1 116.2 11.15 A 2.285 2.285 0 0 1 116.862 11.241 A 1.786 1.786 0 0 1 117.65 11.725 A 1.965 1.965 0 0 1 118.199 13.064 A 2.564 2.564 0 0 1 118.2 13.15 L 118.2 16.7 L 117.2 17.8 A 6.27 6.27 0 0 1 117.707 16.289 A 8.454 8.454 0 0 1 118.35 15.175 A 10.332 10.332 0 0 1 120.351 12.999 A 11.681 11.681 0 0 1 120.6 12.8 Q 121.95 11.75 123.6 11.125 Q 125.25 10.5 127.05 10.5 A 13.394 13.394 0 0 1 129.125 10.651 Q 130.231 10.824 131.129 11.198 A 6.357 6.357 0 0 1 132.4 11.9 Q 134.35 13.3 135.175 15.65 A 14.476 14.476 0 0 1 135.884 18.802 A 18.383 18.383 0 0 1 136 20.9 Z M 2 2 L 14.5 2 A 16.455 16.455 0 0 1 17.831 2.323 A 12.736 12.736 0 0 1 20.925 3.375 Q 23.7 4.75 25.55 7.2 A 16.975 16.975 0 0 1 28.08 12.043 A 19.572 19.572 0 0 1 28.325 12.825 A 23.676 23.676 0 0 1 29.249 19.282 A 26.376 26.376 0 0 1 29.25 19.5 A 24.272 24.272 0 0 1 28.638 25.044 A 20.734 20.734 0 0 1 27.6 28.275 A 15.187 15.187 0 0 1 24.746 32.803 A 14.087 14.087 0 0 1 22.7 34.625 A 11.972 11.972 0 0 1 18.108 36.638 A 17.041 17.041 0 0 1 14.5 37 L 2 37 A 1.978 1.978 0 0 1 1.175 36.831 A 1.931 1.931 0 0 1 0.575 36.4 Q 0 35.8 0 34.95 L 0 4 A 2.069 2.069 0 0 1 0.144 3.219 A 1.923 1.923 0 0 1 0.575 2.575 A 1.931 1.931 0 0 1 1.974 2 A 2.494 2.494 0 0 1 2 2 Z M 65.95 11.95 L 74.25 31.45 L 73.45 31.85 L 81.9 12 A 2.652 2.652 0 0 1 82.253 11.372 Q 82.775 10.698 83.658 10.698 A 2.391 2.391 0 0 1 83.75 10.7 Q 84.5 10.7 85.05 11.2 A 1.611 1.611 0 0 1 85.599 12.369 A 1.992 1.992 0 0 1 85.6 12.45 Q 85.6 12.75 85.525 13.025 A 3.177 3.177 0 0 1 85.455 13.251 Q 85.407 13.388 85.35 13.5 L 75.7 35.7 A 2.672 2.672 0 0 1 75.317 36.337 A 1.795 1.795 0 0 1 73.95 37 A 2.242 2.242 0 0 1 73.778 37.007 A 2.108 2.108 0 0 1 72.725 36.725 A 1.76 1.76 0 0 1 72.006 35.949 A 2.341 2.341 0 0 1 71.9 35.7 L 62.25 13.55 A 2.561 2.561 0 0 1 62.14 13.295 A 3.233 3.233 0 0 1 62.075 13.1 A 1.64 1.64 0 0 1 62.024 12.862 Q 62.007 12.741 62.002 12.602 A 3.063 3.063 0 0 1 62 12.5 A 1.638 1.638 0 0 1 62.249 11.642 A 2.333 2.333 0 0 1 62.525 11.275 A 1.712 1.712 0 0 1 63.448 10.756 A 2.57 2.57 0 0 1 64 10.7 A 2.211 2.211 0 0 1 65.081 10.986 A 2.627 2.627 0 0 1 65.15 11.025 Q 65.7 11.35 65.95 11.95 Z M 3.85 33.1 L 14 33.1 Q 17.474 33.1 19.788 31.594 A 7.991 7.991 0 0 0 20.275 31.25 A 10.442 10.442 0 0 0 23.564 26.963 A 12.737 12.737 0 0 0 23.825 26.3 A 18.842 18.842 0 0 0 24.861 21.534 A 22.784 22.784 0 0 0 24.95 19.5 A 21.164 21.164 0 0 0 24.401 14.635 A 19.763 19.763 0 0 0 24.325 14.325 A 13.944 13.944 0 0 0 23.204 11.324 A 12.166 12.166 0 0 0 22.375 9.95 Q 21.05 8.05 18.975 6.95 A 9.14 9.14 0 0 0 16.38 6.061 Q 15.269 5.85 14 5.85 L 3.75 5.85 L 4.15 5.45 L 4.15 33.6 L 3.85 33.1 Z M 217.85 24 Q 217.85 27.9 216.125 30.95 Q 214.4 34 211.475 35.75 A 12.428 12.428 0 0 1 205.466 37.489 A 14.883 14.883 0 0 1 204.9 37.5 A 13.097 13.097 0 0 1 200.212 36.673 A 12.297 12.297 0 0 1 198.3 35.75 Q 195.35 34 193.625 30.95 A 13.348 13.348 0 0 1 191.983 25.666 A 16.473 16.473 0 0 1 191.9 24 Q 191.9 20.1 193.625 17.05 Q 195.35 14 198.3 12.25 A 12.591 12.591 0 0 1 204.447 10.507 A 14.959 14.959 0 0 1 204.9 10.5 A 13.065 13.065 0 0 1 209.379 11.254 A 12.08 12.08 0 0 1 211.475 12.25 Q 214.4 14 216.125 17.05 A 13.348 13.348 0 0 1 217.768 22.335 A 16.473 16.473 0 0 1 217.85 24 Z M 95.4 2 L 95.4 34.95 A 1.973 1.973 0 0 1 94.819 36.381 A 2.379 2.379 0 0 1 94.8 36.4 A 1.973 1.973 0 0 1 93.377 37 A 2.393 2.393 0 0 1 93.35 37 A 1.966 1.966 0 0 1 92.619 36.868 A 1.803 1.803 0 0 1 91.95 36.4 Q 91.4 35.8 91.4 34.95 L 91.4 2 A 2.069 2.069 0 0 1 91.544 1.219 A 1.923 1.923 0 0 1 91.975 0.575 A 1.931 1.931 0 0 1 93.374 0 A 2.494 2.494 0 0 1 93.4 0 A 2.285 2.285 0 0 1 94.062 0.091 A 1.786 1.786 0 0 1 94.85 0.575 A 1.965 1.965 0 0 1 95.399 1.914 A 2.564 2.564 0 0 1 95.4 2 Z M 213.85 24 A 12.129 12.129 0 0 0 213.561 21.295 A 9.588 9.588 0 0 0 212.675 18.9 Q 211.5 16.7 209.475 15.45 Q 207.45 14.2 204.9 14.2 A 8.904 8.904 0 0 0 201.849 14.713 A 8.21 8.21 0 0 0 200.325 15.45 A 9.058 9.058 0 0 0 197.119 18.866 A 10.623 10.623 0 0 0 197.1 18.9 A 9.77 9.77 0 0 0 196.018 22.256 A 12.586 12.586 0 0 0 195.9 24 A 11.524 11.524 0 0 0 196.229 26.806 A 9.464 9.464 0 0 0 197.1 29.05 Q 198.3 31.25 200.325 32.525 A 8.338 8.338 0 0 0 204.584 33.795 A 10.009 10.009 0 0 0 204.9 33.8 A 8.725 8.725 0 0 0 208.021 33.251 A 8.148 8.148 0 0 0 209.475 32.525 Q 211.5 31.25 212.675 29.05 A 9.946 9.946 0 0 0 213.755 25.573 A 12.599 12.599 0 0 0 213.85 24 Z M 107 12.75 L 107 34.95 Q 107 35.8 106.425 36.4 A 1.888 1.888 0 0 1 105.053 37 A 2.372 2.372 0 0 1 105 37 A 2.189 2.189 0 0 1 104.327 36.901 A 1.776 1.776 0 0 1 103.55 36.4 Q 103 35.8 103 34.95 L 103 12.75 Q 103 11.9 103.575 11.325 A 1.931 1.931 0 0 1 104.974 10.75 A 2.494 2.494 0 0 1 105 10.75 A 2.069 2.069 0 0 1 105.782 10.894 A 1.923 1.923 0 0 1 106.425 11.325 A 1.931 1.931 0 0 1 107 12.724 A 2.494 2.494 0 0 1 107 12.75 Z M 186.1 12.75 L 186.1 34.95 Q 186.1 35.8 185.525 36.4 A 1.888 1.888 0 0 1 184.153 37 A 2.372 2.372 0 0 1 184.1 37 A 2.189 2.189 0 0 1 183.427 36.901 A 1.776 1.776 0 0 1 182.65 36.4 Q 182.1 35.8 182.1 34.95 L 182.1 12.75 Q 182.1 11.9 182.675 11.325 A 1.931 1.931 0 0 1 184.074 10.75 A 2.494 2.494 0 0 1 184.1 10.75 A 2.069 2.069 0 0 1 184.882 10.894 A 1.923 1.923 0 0 1 185.525 11.325 A 1.931 1.931 0 0 1 186.1 12.724 A 2.494 2.494 0 0 1 186.1 12.75 Z M 173.65 36.95 L 173.25 36.95 Q 172.344 36.95 171.791 36.503 A 1.788 1.788 0 0 1 171.625 36.35 Q 171.05 35.75 171.05 34.7 L 171.05 33.7 Q 171.05 32.6 171.625 32 A 1.873 1.873 0 0 1 172.543 31.481 Q 172.865 31.4 173.25 31.4 L 173.65 31.4 A 3.204 3.204 0 0 1 174.284 31.459 Q 174.653 31.533 174.935 31.703 A 1.632 1.632 0 0 1 175.3 32 A 1.961 1.961 0 0 1 175.73 32.779 Q 175.85 33.184 175.85 33.7 L 175.85 34.7 Q 175.85 35.75 175.3 36.35 A 1.737 1.737 0 0 1 174.514 36.833 Q 174.231 36.921 173.886 36.943 A 3.714 3.714 0 0 1 173.65 36.95 Z M 102.55 5.35 L 102.55 4.65 A 2.676 2.676 0 0 1 102.613 4.049 Q 102.753 3.444 103.2 3.1 A 2.162 2.162 0 0 1 103.874 2.758 Q 104.18 2.662 104.55 2.624 A 4.95 4.95 0 0 1 105.05 2.6 Q 106.25 2.6 106.85 3.1 A 1.568 1.568 0 0 1 107.344 3.862 Q 107.45 4.207 107.45 4.65 L 107.45 5.35 Q 107.45 6.4 106.825 6.9 Q 106.351 7.28 105.545 7.371 A 4.84 4.84 0 0 1 105 7.4 A 5.003 5.003 0 0 1 104.349 7.361 Q 103.595 7.261 103.166 6.913 A 1.531 1.531 0 0 1 103.15 6.9 A 1.568 1.568 0 0 1 102.657 6.138 Q 102.55 5.793 102.55 5.35 Z M 181.65 5.35 L 181.65 4.65 A 2.676 2.676 0 0 1 181.713 4.049 Q 181.853 3.444 182.3 3.1 A 2.162 2.162 0 0 1 182.974 2.758 Q 183.28 2.662 183.65 2.624 A 4.95 4.95 0 0 1 184.15 2.6 Q 185.35 2.6 185.95 3.1 A 1.568 1.568 0 0 1 186.444 3.862 Q 186.55 4.207 186.55 4.65 L 186.55 5.35 Q 186.55 6.4 185.925 6.9 Q 185.451 7.28 184.645 7.371 A 4.84 4.84 0 0 1 184.1 7.4 A 5.003 5.003 0 0 1 183.449 7.361 Q 182.695 7.261 182.266 6.913 A 1.531 1.531 0 0 1 182.25 6.9 A 1.568 1.568 0 0 1 181.757 6.138 Q 181.65 5.793 181.65 5.35 Z"/></g></svg>