<svg width="415.601" height="75.001" viewBox="0 0 415.601 75.001" xmlns="http://www.w3.org/2000/svg"><g id="svgGroup" stroke-linecap="round" fill-rule="evenodd" font-size="9pt" stroke="#000" stroke-width="0.25mm" fill="#000" style="stroke:#000;stroke-width:0.25mm;fill:#000"><path d="M 111.2 47.4 L 70.4 47.4 L 69.8 43.6 L 110.1 43.6 L 109.1 44.5 L 109.1 42.7 A 18.995 18.995 0 0 0 108.115 38.105 A 14.949 14.949 0 0 0 105.75 33.8 Q 102.9 30.2 98.9 28.35 Q 94.9 26.5 90.6 26.5 A 14.975 14.975 0 0 0 86.932 26.976 A 19.649 19.649 0 0 0 84.3 27.85 A 18.337 18.337 0 0 0 79.358 30.891 A 21.79 21.79 0 0 0 78.2 31.95 A 19.264 19.264 0 0 0 74.977 36.184 A 24.492 24.492 0 0 0 73.65 38.9 A 22.017 22.017 0 0 0 72.259 43.913 A 30.368 30.368 0 0 0 71.9 48.7 A 26.491 26.491 0 0 0 73.058 56.615 A 24.145 24.145 0 0 0 74.35 59.9 Q 76.8 65 81.65 68.1 A 19.119 19.119 0 0 0 88.178 70.684 A 27.019 27.019 0 0 0 93.6 71.2 A 17.852 17.852 0 0 0 99.434 70.256 A 16.945 16.945 0 0 0 100 70.05 Q 103 68.9 105.4 67 A 20.588 20.588 0 0 0 107.815 64.768 A 16.704 16.704 0 0 0 109.3 62.9 Q 109.874 62.254 110.5 62.072 A 1.779 1.779 0 0 1 111 62 A 1.551 1.551 0 0 1 112.145 62.492 A 2.071 2.071 0 0 1 112.2 62.55 A 1.945 1.945 0 0 1 112.579 63.147 A 1.768 1.768 0 0 1 112.7 63.8 Q 112.7 64.5 112.3 65 A 28.123 28.123 0 0 1 106.974 70.208 A 34.259 34.259 0 0 1 104.35 72 Q 99.5 75 93.6 75 A 29.882 29.882 0 0 1 86.331 74.149 A 24.424 24.424 0 0 1 80.35 71.8 Q 74.6 68.6 71.3 62.75 Q 68 56.9 68 49 A 36.199 36.199 0 0 1 68.578 42.358 Q 69.322 38.376 71.019 35.13 A 22.507 22.507 0 0 1 71.25 34.7 A 25.89 25.89 0 0 1 75.373 29.069 A 21.984 21.984 0 0 1 79.65 25.65 Q 84.8 22.5 90.6 22.5 Q 94.8 22.5 98.8 23.85 Q 102.8 25.2 105.95 28.05 A 20.88 20.88 0 0 1 110.208 33.481 A 24.881 24.881 0 0 1 111.05 35.15 A 22.271 22.271 0 0 1 112.596 39.972 Q 113.056 42.211 113.178 44.768 A 37.914 37.914 0 0 1 113.2 45.3 A 2.029 2.029 0 0 1 112.757 46.564 A 2.694 2.694 0 0 1 112.6 46.75 Q 112 47.4 111.2 47.4 Z M 317.5 47.4 L 276.7 47.4 L 276.1 43.6 L 316.4 43.6 L 315.4 44.5 L 315.4 42.7 A 18.995 18.995 0 0 0 314.415 38.105 A 14.949 14.949 0 0 0 312.05 33.8 Q 309.2 30.2 305.2 28.35 Q 301.2 26.5 296.9 26.5 A 14.975 14.975 0 0 0 293.232 26.976 A 19.649 19.649 0 0 0 290.6 27.85 A 18.337 18.337 0 0 0 285.658 30.891 A 21.79 21.79 0 0 0 284.5 31.95 A 19.264 19.264 0 0 0 281.277 36.184 A 24.492 24.492 0 0 0 279.95 38.9 A 22.017 22.017 0 0 0 278.559 43.913 A 30.368 30.368 0 0 0 278.2 48.7 A 26.491 26.491 0 0 0 279.358 56.615 A 24.145 24.145 0 0 0 280.65 59.9 Q 283.1 65 287.95 68.1 A 19.119 19.119 0 0 0 294.478 70.684 A 27.019 27.019 0 0 0 299.9 71.2 A 17.852 17.852 0 0 0 305.734 70.256 A 16.945 16.945 0 0 0 306.3 70.05 Q 309.3 68.9 311.7 67 A 20.588 20.588 0 0 0 314.115 64.768 A 16.704 16.704 0 0 0 315.6 62.9 Q 316.174 62.254 316.8 62.072 A 1.779 1.779 0 0 1 317.3 62 A 1.551 1.551 0 0 1 318.445 62.492 A 2.071 2.071 0 0 1 318.5 62.55 A 1.945 1.945 0 0 1 318.879 63.147 A 1.768 1.768 0 0 1 319 63.8 Q 319 64.5 318.6 65 A 28.123 28.123 0 0 1 313.274 70.208 A 34.259 34.259 0 0 1 310.65 72 Q 305.8 75 299.9 75 A 29.882 29.882 0 0 1 292.631 74.149 A 24.424 24.424 0 0 1 286.65 71.8 Q 280.9 68.6 277.6 62.75 Q 274.3 56.9 274.3 49 A 36.199 36.199 0 0 1 274.878 42.358 Q 275.622 38.376 277.319 35.13 A 22.507 22.507 0 0 1 277.55 34.7 A 25.89 25.89 0 0 1 281.673 29.069 A 21.984 21.984 0 0 1 285.95 25.65 Q 291.1 22.5 296.9 22.5 Q 301.1 22.5 305.1 23.85 Q 309.1 25.2 312.25 28.05 A 20.88 20.88 0 0 1 316.508 33.481 A 24.881 24.881 0 0 1 317.35 35.15 A 22.271 22.271 0 0 1 318.896 39.972 Q 319.356 42.211 319.478 44.768 A 37.914 37.914 0 0 1 319.5 45.3 A 2.029 2.029 0 0 1 319.057 46.564 A 2.694 2.694 0 0 1 318.9 46.75 Q 318.3 47.4 317.5 47.4 Z M 260.8 41.4 L 260.8 72 A 1.908 1.908 0 0 1 260.238 73.361 A 2.504 2.504 0 0 1 260.2 73.4 A 2.091 2.091 0 0 1 259.583 73.836 A 1.879 1.879 0 0 1 258.8 74 A 2.189 2.189 0 0 1 258.127 73.901 A 1.776 1.776 0 0 1 257.35 73.4 Q 256.8 72.8 256.8 72 L 256.8 41.8 A 22.082 22.082 0 0 0 256.341 37.216 A 18.28 18.28 0 0 0 255.35 34 Q 253.9 30.5 250.75 28.4 A 11.67 11.67 0 0 0 247.177 26.842 Q 245.628 26.44 243.802 26.336 A 22.985 22.985 0 0 0 242.5 26.3 A 18.879 18.879 0 0 0 234.442 28.138 A 22.069 22.069 0 0 0 233.9 28.4 A 20.291 20.291 0 0 0 227.49 33.343 A 19.647 19.647 0 0 0 226.95 34 Q 224.2 37.5 224.2 41.8 L 224.2 72 A 1.908 1.908 0 0 1 223.638 73.361 A 2.504 2.504 0 0 1 223.6 73.4 A 2.091 2.091 0 0 1 222.983 73.836 A 1.879 1.879 0 0 1 222.2 74 A 2.189 2.189 0 0 1 221.527 73.901 A 1.776 1.776 0 0 1 220.75 73.4 Q 220.2 72.8 220.2 72 L 220.2 26.1 A 1.908 1.908 0 0 1 220.762 24.739 A 2.504 2.504 0 0 1 220.8 24.7 A 2.091 2.091 0 0 1 221.417 24.265 A 1.879 1.879 0 0 1 222.2 24.1 A 2.189 2.189 0 0 1 222.874 24.199 A 1.776 1.776 0 0 1 223.65 24.7 Q 224.2 25.3 224.2 26.1 L 224.2 35.9 L 221.7 40.7 A 13.584 13.584 0 0 1 223.483 34.007 A 16.008 16.008 0 0 1 223.6 33.8 A 21.314 21.314 0 0 1 228.552 27.99 A 24.037 24.037 0 0 1 228.6 27.95 Q 231.7 25.4 235.45 23.95 Q 239.2 22.5 242.9 22.5 Q 247.813 22.5 251.296 24.02 A 13.719 13.719 0 0 1 253.15 25 Q 257.1 27.5 258.95 31.8 Q 260.8 36.1 260.8 41.4 Z M 2 4 L 28 4 A 33.208 33.208 0 0 1 34.386 4.585 A 24.546 24.546 0 0 1 41 6.85 Q 46.5 9.7 50.05 14.65 A 34.188 34.188 0 0 1 54.965 24.731 A 39.15 39.15 0 0 1 55.3 25.9 Q 57 32.2 57 39 A 52.529 52.529 0 0 1 55.925 49.818 A 44.035 44.035 0 0 1 53.95 56.55 A 28.99 28.99 0 0 1 48.667 65.423 A 26.886 26.886 0 0 1 44.5 69.25 A 23.168 23.168 0 0 1 35.93 73.139 Q 32.641 73.919 28.8 73.993 A 42.023 42.023 0 0 1 28 74 L 2 74 A 1.908 1.908 0 0 1 0.639 73.438 A 2.504 2.504 0 0 1 0.6 73.4 A 2.091 2.091 0 0 1 0.164 72.783 A 1.879 1.879 0 0 1 0 72 L 0 6 A 1.908 1.908 0 0 1 0.562 4.639 A 2.504 2.504 0 0 1 0.6 4.6 A 2.091 2.091 0 0 1 1.217 4.165 A 1.879 1.879 0 0 1 2 4 Z M 125.6 23.6 L 144.1 67.9 L 143.1 68.6 L 161.9 23.6 Q 162.294 22.575 163.372 22.358 A 3.185 3.185 0 0 1 164 22.3 A 1.593 1.593 0 0 1 164.394 22.354 Q 164.751 22.446 165.186 22.692 A 5.151 5.151 0 0 1 165.2 22.7 Q 165.845 23.069 165.896 23.777 A 1.726 1.726 0 0 1 165.9 23.9 A 4.019 4.019 0 0 1 165.892 24.162 Q 165.872 24.47 165.8 24.65 Q 165.7 24.9 165.6 25.1 L 145.7 72.7 A 2.266 2.266 0 0 1 145.3 73.386 Q 144.863 73.885 144.146 73.979 A 2.673 2.673 0 0 1 143.8 74 A 2.07 2.07 0 0 1 142.788 73.732 A 2.534 2.534 0 0 1 142.65 73.65 Q 142.1 73.3 141.9 72.7 L 121.9 25.2 A 1.668 1.668 0 0 1 121.79 24.916 A 2.045 2.045 0 0 1 121.75 24.75 A 2.842 2.842 0 0 1 121.716 24.541 Q 121.7 24.413 121.7 24.3 Q 121.7 23.5 122.2 22.9 A 1.54 1.54 0 0 1 122.901 22.432 Q 123.158 22.343 123.476 22.314 A 3.557 3.557 0 0 1 123.8 22.3 Q 124.255 22.3 124.751 22.589 A 3.018 3.018 0 0 1 124.85 22.65 Q 125.4 23 125.6 23.6 Z M 3.6 70 L 27 70 Q 36.2 70 41.85 65.85 A 23.679 23.679 0 0 0 49.627 55.946 A 28.753 28.753 0 0 0 50.15 54.65 A 41.417 41.417 0 0 0 52.528 44.35 A 51.347 51.347 0 0 0 52.8 39 A 46.521 46.521 0 0 0 51.373 27.388 A 43.84 43.84 0 0 0 51.35 27.3 A 30.906 30.906 0 0 0 48.413 19.896 A 27.854 27.854 0 0 0 46.8 17.35 Q 43.7 13 38.8 10.5 A 21.941 21.941 0 0 0 33.029 8.549 Q 30.496 8.052 27.603 8.005 A 37.369 37.369 0 0 0 27 8 L 3.6 8 L 4.2 7.2 L 4.2 70.9 L 3.6 70 Z M 414.412 57.28 A 29.439 29.439 0 0 0 415.6 48.8 Q 415.6 41.3 412.4 35.35 Q 409.2 29.4 403.65 25.95 Q 398.1 22.5 391 22.5 Q 384 22.5 378.4 25.95 Q 372.8 29.4 369.55 35.35 A 25.659 25.659 0 0 0 367.386 40.646 A 29.673 29.673 0 0 0 366.3 48.8 A 32.242 32.242 0 0 0 366.379 51.077 A 26.75 26.75 0 0 0 369.55 62.15 Q 372.8 68.1 378.4 71.55 A 22.835 22.835 0 0 0 382.226 73.443 A 24.351 24.351 0 0 0 391 75 A 28.089 28.089 0 0 0 392.751 74.946 A 23.021 23.021 0 0 0 403.65 71.55 Q 409.2 68.1 412.4 62.15 A 25.975 25.975 0 0 0 414.412 57.28 Z M 182.5 2 L 182.5 72 A 1.908 1.908 0 0 1 181.938 73.361 A 2.504 2.504 0 0 1 181.9 73.4 A 2.091 2.091 0 0 1 181.283 73.836 A 1.879 1.879 0 0 1 180.5 74 A 2.189 2.189 0 0 1 179.827 73.901 A 1.776 1.776 0 0 1 179.05 73.4 Q 178.5 72.8 178.5 72 L 178.5 2 A 1.908 1.908 0 0 1 179.062 0.639 A 2.504 2.504 0 0 1 179.1 0.6 A 2.091 2.091 0 0 1 179.717 0.165 A 1.879 1.879 0 0 1 180.5 0 A 2.189 2.189 0 0 1 181.174 0.099 A 1.776 1.776 0 0 1 181.95 0.6 Q 182.5 1.2 182.5 2 Z M 411.6 48.8 A 27.174 27.174 0 0 0 410.858 42.325 A 22.264 22.264 0 0 0 408.95 37.25 Q 406.3 32.2 401.65 29.25 A 19.062 19.062 0 0 0 392.524 26.349 A 23.402 23.402 0 0 0 391 26.3 A 20.192 20.192 0 0 0 383.614 27.632 A 18.981 18.981 0 0 0 380.4 29.25 Q 375.7 32.2 373 37.25 A 22.809 22.809 0 0 0 370.514 45.259 A 28.619 28.619 0 0 0 370.3 48.8 A 25.959 25.959 0 0 0 371.154 55.573 A 22.034 22.034 0 0 0 373 60.25 Q 375.7 65.3 380.4 68.25 A 19.405 19.405 0 0 0 390.45 71.194 A 23.269 23.269 0 0 0 391 71.2 A 20.763 20.763 0 0 0 397.486 70.214 A 18.426 18.426 0 0 0 401.65 68.25 Q 406.3 65.3 408.95 60.25 Q 411.6 55.2 411.6 48.8 Z M 203.6 24.5 L 203.6 72 A 1.908 1.908 0 0 1 203.038 73.361 A 2.504 2.504 0 0 1 203 73.4 A 2.091 2.091 0 0 1 202.383 73.836 A 1.879 1.879 0 0 1 201.6 74 A 2.189 2.189 0 0 1 200.927 73.901 A 1.776 1.776 0 0 1 200.15 73.4 Q 199.6 72.8 199.6 72 L 199.6 24.5 A 1.908 1.908 0 0 1 200.162 23.139 A 2.504 2.504 0 0 1 200.2 23.1 A 2.091 2.091 0 0 1 200.817 22.665 A 1.879 1.879 0 0 1 201.6 22.5 A 2.189 2.189 0 0 1 202.274 22.599 A 1.776 1.776 0 0 1 203.05 23.1 Q 203.6 23.7 203.6 24.5 Z M 352.8 24.5 L 352.8 72 A 1.908 1.908 0 0 1 352.238 73.361 A 2.504 2.504 0 0 1 352.2 73.4 A 2.091 2.091 0 0 1 351.583 73.836 A 1.879 1.879 0 0 1 350.8 74 A 2.189 2.189 0 0 1 350.127 73.901 A 1.776 1.776 0 0 1 349.35 73.4 Q 348.8 72.8 348.8 72 L 348.8 24.5 A 1.908 1.908 0 0 1 349.362 23.139 A 2.504 2.504 0 0 1 349.4 23.1 A 2.091 2.091 0 0 1 350.017 22.665 A 1.879 1.879 0 0 1 350.8 22.5 A 2.189 2.189 0 0 1 351.474 22.599 A 1.776 1.776 0 0 1 352.25 23.1 Q 352.8 23.7 352.8 24.5 Z M 332.8 74 L 332.4 74 A 2.992 2.992 0 0 1 331.547 73.885 A 2.22 2.22 0 0 1 330.4 73.1 A 3.299 3.299 0 0 1 329.739 71.488 A 4.356 4.356 0 0 1 329.7 70.9 L 329.7 68.6 A 4.566 4.566 0 0 1 329.79 67.665 Q 329.916 67.063 330.218 66.599 A 2.729 2.729 0 0 1 330.4 66.35 A 2.275 2.275 0 0 1 331.815 65.548 A 3.394 3.394 0 0 1 332.4 65.5 L 332.8 65.5 A 3.632 3.632 0 0 1 333.584 65.579 Q 334.398 65.759 334.85 66.35 Q 335.444 67.127 335.495 68.362 A 5.733 5.733 0 0 1 335.5 68.6 L 335.5 70.9 A 4.319 4.319 0 0 1 335.376 71.961 A 3.311 3.311 0 0 1 334.85 73.1 A 2.08 2.08 0 0 1 333.62 73.908 Q 333.248 74 332.8 74 Z M 198.1 12.5 L 198.1 11.7 A 3.195 3.195 0 0 1 198.32 10.497 A 2.946 2.946 0 0 1 199.1 9.4 A 3.439 3.439 0 0 1 200.803 8.579 A 4.854 4.854 0 0 1 201.7 8.5 Q 203.1 8.5 204.05 9.4 A 2.999 2.999 0 0 1 204.997 11.548 A 4.009 4.009 0 0 1 205 11.7 L 205 12.5 A 3.367 3.367 0 0 1 204.808 13.657 A 2.944 2.944 0 0 1 204.05 14.8 A 3.241 3.241 0 0 1 202.23 15.657 A 4.457 4.457 0 0 1 201.6 15.7 A 4.604 4.604 0 0 1 200.513 15.579 A 3.171 3.171 0 0 1 199.05 14.8 A 2.999 2.999 0 0 1 198.103 12.652 A 4.009 4.009 0 0 1 198.1 12.5 Z M 347.3 12.5 L 347.3 11.7 A 3.195 3.195 0 0 1 347.52 10.497 A 2.946 2.946 0 0 1 348.3 9.4 A 3.439 3.439 0 0 1 350.003 8.579 A 4.854 4.854 0 0 1 350.9 8.5 Q 352.3 8.5 353.25 9.4 A 2.999 2.999 0 0 1 354.197 11.548 A 4.009 4.009 0 0 1 354.2 11.7 L 354.2 12.5 A 3.367 3.367 0 0 1 354.008 13.657 A 2.944 2.944 0 0 1 353.25 14.8 A 3.241 3.241 0 0 1 351.43 15.657 A 4.457 4.457 0 0 1 350.8 15.7 A 4.604 4.604 0 0 1 349.713 15.579 A 3.171 3.171 0 0 1 348.25 14.8 A 2.999 2.999 0 0 1 347.303 12.652 A 4.009 4.009 0 0 1 347.3 12.5 Z" vector-effect="non-scaling-stroke"/></g></svg>